<svg xmlns="http://www.w3.org/2000/svg" viewBox="0 0 33.283 33.547">
  <defs>
    <style>
      .cls-1 {
        fill: #fff;
      }
    </style>
  </defs>
  <g id="growth_1_" data-name="growth(1)" transform="translate(-2.009 0)">
    <g id="Groupe_41" data-name="Groupe 41" transform="translate(23.756 10.092)">
      <g id="Groupe_40" data-name="Groupe 40">
        <path id="Tracé_53" data-name="Tracé 53" class="cls-1" d="M333.92,154.029v8.083h3.766v1.815l3.63-1.815h4.141v-8.083Zm10.554,7.1h-3.39l-2.415,1.208v-1.208H334.9v-6.117h9.571Z" transform="translate(-333.92 -154.029)"/>
      </g>
    </g>
    <g id="Groupe_43" data-name="Groupe 43" transform="translate(12.614 22.129)">
      <g id="Groupe_42" data-name="Groupe 42">
        <rect id="Rectangle_1355" data-name="Rectangle 1355" class="cls-1" width="0.983" height="0.983"/>
      </g>
    </g>
    <g id="Groupe_45" data-name="Groupe 45" transform="translate(15.89 22.129)">
      <g id="Groupe_44" data-name="Groupe 44">
        <rect id="Rectangle_1356" data-name="Rectangle 1356" class="cls-1" width="0.983" height="0.983"/>
      </g>
    </g>
    <g id="Groupe_47" data-name="Groupe 47" transform="translate(14.252 22.129)">
      <g id="Groupe_46" data-name="Groupe 46">
        <rect id="Rectangle_1357" data-name="Rectangle 1357" class="cls-1" width="0.983" height="0.983"/>
      </g>
    </g>
    <g id="Groupe_49" data-name="Groupe 49" transform="translate(21.205 25.006)">
      <g id="Groupe_48" data-name="Groupe 48">
        <rect id="Rectangle_1358" data-name="Rectangle 1358" class="cls-1" width="0.983" height="0.983"/>
      </g>
    </g>
    <g id="Groupe_51" data-name="Groupe 51" transform="translate(22.843 25.006)">
      <g id="Groupe_50" data-name="Groupe 50">
        <rect id="Rectangle_1359" data-name="Rectangle 1359" class="cls-1" width="0.983" height="0.983"/>
      </g>
    </g>
    <g id="Groupe_53" data-name="Groupe 53" transform="translate(24.481 25.006)">
      <g id="Groupe_52" data-name="Groupe 52">
        <rect id="Rectangle_1360" data-name="Rectangle 1360" class="cls-1" width="0.983" height="0.983"/>
      </g>
    </g>
    <g id="Groupe_55" data-name="Groupe 55" transform="translate(32.895 30.999)">
      <g id="Groupe_54" data-name="Groupe 54">
        <rect id="Rectangle_1361" data-name="Rectangle 1361" class="cls-1" width="0.983" height="0.983"/>
      </g>
    </g>
    <g id="Groupe_57" data-name="Groupe 57" transform="translate(31.257 30.999)">
      <g id="Groupe_56" data-name="Groupe 56">
        <rect id="Rectangle_1362" data-name="Rectangle 1362" class="cls-1" width="0.983" height="0.983"/>
      </g>
    </g>
    <g id="Groupe_59" data-name="Groupe 59" transform="translate(29.619 30.999)">
      <g id="Groupe_58" data-name="Groupe 58">
        <rect id="Rectangle_1363" data-name="Rectangle 1363" class="cls-1" width="0.983" height="0.983"/>
      </g>
    </g>
    <g id="Groupe_61" data-name="Groupe 61" transform="translate(14.67 28.096)">
      <g id="Groupe_60" data-name="Groupe 60">
        <rect id="Rectangle_1364" data-name="Rectangle 1364" class="cls-1" width="0.983" height="0.983"/>
      </g>
    </g>
    <g id="Groupe_63" data-name="Groupe 63" transform="translate(13.032 28.096)">
      <g id="Groupe_62" data-name="Groupe 62">
        <rect id="Rectangle_1365" data-name="Rectangle 1365" class="cls-1" width="0.983" height="0.983"/>
      </g>
    </g>
    <g id="Groupe_65" data-name="Groupe 65" transform="translate(11.394 28.096)">
      <g id="Groupe_64" data-name="Groupe 64">
        <rect id="Rectangle_1366" data-name="Rectangle 1366" class="cls-1" width="0.983" height="0.983"/>
      </g>
    </g>
    <g id="Groupe_67" data-name="Groupe 67" transform="translate(7.574 31.065)">
      <g id="Groupe_66" data-name="Groupe 66">
        <rect id="Rectangle_1367" data-name="Rectangle 1367" class="cls-1" width="0.983" height="0.983"/>
      </g>
    </g>
    <g id="Groupe_69" data-name="Groupe 69" transform="translate(5.936 31.065)">
      <g id="Groupe_68" data-name="Groupe 68" transform="translate(0)">
        <rect id="Rectangle_1368" data-name="Rectangle 1368" class="cls-1" width="0.983" height="0.983"/>
      </g>
    </g>
    <g id="Groupe_71" data-name="Groupe 71" transform="translate(9.212 31.065)">
      <g id="Groupe_70" data-name="Groupe 70">
        <rect id="Rectangle_1369" data-name="Rectangle 1369" class="cls-1" width="0.983" height="0.983"/>
      </g>
    </g>
    <g id="Groupe_73" data-name="Groupe 73" transform="translate(2.009 17.653)">
      <g id="Groupe_72" data-name="Groupe 72" transform="translate(0)">
        <path id="Tracé_54" data-name="Tracé 54" class="cls-1" d="M34.288,281.353v-2.975H27.73v-2.984h-.781V272.41H18.515v-2.984H9.709v3.967h.61v2H3.276v2.984H2.009v3.958h1v2.984H35.29v-3.967Zm-6.212-1.992v.7h.983v-.7h1.6v.7h.983v-.7h1.662v1.992H26.464V279.36Zm-1.329-.983H19.907v-2h6.841Zm-5.488,1.686v-.7h1.6v.7h.983v-.7h1.637v1.992H18.64V279.36h1.637v.7Zm-2.134-6.671h6.841v2H19.125Zm-.2,2.984v2H12.082v-2H13.72v.992H14.7v-.992h1.6v.992h.983v-.992Zm-1.267,2.984v1.992H10.816V279.36Zm.485-3.967H11.3v-2h6.841Zm-7.451-4.985h6.841v2H15.9V271.4h-.983v1.009h-1.6v-1h-.983v1H10.691v-2Zm-6.433,5.968H11.1v2H4.258Zm-1.267,4.976V279.36H4.629v1h.983v-1h1.6v1H8.2v-1H9.833v1.992Zm7.843,2.984H3.994v-2h6.841v2Zm7.824,0H17.022v-1.009h-.983v1.009h-1.6v-1.009h-.983v1.009H11.818v-2h6.841v2Zm7.824,0H24.846v-1h-.983v1h-1.6v-1h-.983v1H19.642v-2h6.841v2Zm7.824,0H27.466v-2h6.841v2Z" transform="translate(-2.009 -269.426)"/>
      </g>
    </g>
    <g id="Groupe_75" data-name="Groupe 75" transform="translate(22.965 22.129)">
      <g id="Groupe_74" data-name="Groupe 74">
        <rect id="Rectangle_1370" data-name="Rectangle 1370" class="cls-1" width="0.983" height="0.983"/>
      </g>
    </g>
    <g id="Groupe_77" data-name="Groupe 77" transform="translate(19.539 22.129)">
      <g id="Groupe_76" data-name="Groupe 76">
        <rect id="Rectangle_1371" data-name="Rectangle 1371" class="cls-1" width="2.77" height="0.983"/>
      </g>
    </g>
    <g id="Groupe_79" data-name="Groupe 79" transform="translate(24.603 22.129)">
      <g id="Groupe_78" data-name="Groupe 78">
        <rect id="Rectangle_1372" data-name="Rectangle 1372" class="cls-1" width="0.983" height="0.983"/>
      </g>
    </g>
    <g id="Groupe_81" data-name="Groupe 81" transform="translate(4.656 25.112)">
      <g id="Groupe_80" data-name="Groupe 80">
        <rect id="Rectangle_1373" data-name="Rectangle 1373" class="cls-1" width="2.77" height="0.983"/>
      </g>
    </g>
    <g id="Groupe_83" data-name="Groupe 83" transform="translate(9.719 25.112)">
      <g id="Groupe_82" data-name="Groupe 82">
        <rect id="Rectangle_1374" data-name="Rectangle 1374" class="cls-1" width="0.983" height="0.983"/>
      </g>
    </g>
    <g id="Groupe_85" data-name="Groupe 85" transform="translate(8.081 25.112)">
      <g id="Groupe_84" data-name="Groupe 84">
        <rect id="Rectangle_1375" data-name="Rectangle 1375" class="cls-1" width="0.983" height="0.983"/>
      </g>
    </g>
    <g id="Groupe_87" data-name="Groupe 87" transform="translate(27.653 11.851)">
      <g id="Groupe_86" data-name="Groupe 86">
        <path id="Tracé_55" data-name="Tracé 55" class="cls-1" d="M395.269,180.873l-1.871,1.871.695.695.685-.685v2.788h.983v-2.788l.685.685.695-.695Z" transform="translate(-393.398 -180.873)"/>
      </g>
    </g>
    <g id="Groupe_89" data-name="Groupe 89" transform="translate(22.671 2.967)">
      <g id="Groupe_88" data-name="Groupe 88">
        <path id="Tracé_56" data-name="Tracé 56" class="cls-1" d="M318.275,45.282a4.393,4.393,0,0,0-.306.328,4.478,4.478,0,0,0-.61.947l.886.425a3.493,3.493,0,0,1,.475-.739,3.411,3.411,0,0,1,.237-.254Z" transform="translate(-317.359 -45.282)"/>
      </g>
    </g>
    <g id="Groupe_91" data-name="Groupe 91" transform="translate(25.825 1.648)">
      <g id="Groupe_90" data-name="Groupe 90">
        <path id="Tracé_57" data-name="Tracé 57" class="cls-1" d="M366.552,25.151a6.169,6.169,0,0,0-1.057.143l.218.958a5.188,5.188,0,0,1,.888-.119Z" transform="translate(-365.495 -25.151)"/>
      </g>
    </g>
    <g id="Groupe_93" data-name="Groupe 93" transform="translate(24.159 1.998)">
      <g id="Groupe_92" data-name="Groupe 92">
        <path id="Tracé_58" data-name="Tracé 58" class="cls-1" d="M341.05,30.494a4.659,4.659,0,0,0-.974.5l.553.812a3.679,3.679,0,0,1,.768-.4Z" transform="translate(-340.076 -30.494)"/>
      </g>
    </g>
    <g id="Groupe_95" data-name="Groupe 95" transform="translate(24.744 4.03)">
      <g id="Groupe_94" data-name="Groupe 94">
        <path id="Tracé_59" data-name="Tracé 59" class="cls-1" d="M350.7,61.513a3.554,3.554,0,0,1-.569.951,3.421,3.421,0,0,1-1.139.878l.427.885a4.4,4.4,0,0,0,1.463-1.13,4.536,4.536,0,0,0,.727-1.212Z" transform="translate(-348.996 -61.513)"/>
      </g>
    </g>
    <g id="Groupe_97" data-name="Groupe 97" transform="translate(8.152 0)">
      <g id="Groupe_96" data-name="Groupe 96" transform="translate(0 0)">
        <path id="Tracé_60" data-name="Tracé 60" class="cls-1" d="M116.876.545,116.817.2l-.343-.059a7.185,7.185,0,0,0-6.5,1.723,7.1,7.1,0,0,0-1.763,6.243l-.576.576V7.153h-2.5v6.223l-.576-.576A7.1,7.1,0,0,0,102.8,6.557a7.185,7.185,0,0,0-6.5-1.723l-.343.059-.059.343a7.185,7.185,0,0,0,1.723,6.5A6.689,6.689,0,0,0,102.48,13.6a9.585,9.585,0,0,0,1.389-.1l1.271,1.271v2.068h.983v-8.7h.533V19.818h.983V10.076L108.91,8.8a9.585,9.585,0,0,0,1.389.1,6.691,6.691,0,0,0,4.854-1.867A7.185,7.185,0,0,0,116.876.545ZM103.67,11.905,100.562,8.8l-.695.695,3.109,3.109a5.893,5.893,0,0,1-4.654-1.563,6.11,6.11,0,0,1-1.5-5.287,6.11,6.11,0,0,1,5.287,1.5A5.893,5.893,0,0,1,103.67,11.905Zm10.788-5.558A5.893,5.893,0,0,1,109.8,7.91L112.913,4.8l-.695-.695-3.109,3.109a5.893,5.893,0,0,1,1.563-4.654,6.111,6.111,0,0,1,5.287-1.5A6.11,6.11,0,0,1,114.458,6.347Z" transform="translate(-95.76 0)"/>
      </g>
    </g>
    <g id="Groupe_99" data-name="Groupe 99" transform="translate(10.842 9.588)">
      <g id="Groupe_98" data-name="Groupe 98">
        <path id="Tracé_61" data-name="Tracé 61" class="cls-1" d="M137.656,146.423l-.068-.083-.771.609q.043.055.088.108a4.357,4.357,0,0,0,.773.718l.577-.8A3.374,3.374,0,0,1,137.656,146.423Z" transform="translate(-136.817 -146.34)"/>
      </g>
    </g>
    <g id="Groupe_101" data-name="Groupe 101" transform="translate(9.792 6.818)">
      <g id="Groupe_100" data-name="Groupe 100" transform="translate(0)">
        <path id="Tracé_62" data-name="Tracé 62" class="cls-1" d="M121.775,104.1v-.035l-.983,0v.04a6.6,6.6,0,0,0,.077,1.017l.971-.152A5.621,5.621,0,0,1,121.775,104.1Z" transform="translate(-120.792 -104.062)"/>
      </g>
    </g>
    <g id="Groupe_103" data-name="Groupe 103" transform="translate(10.023 8.303)">
      <g id="Groupe_102" data-name="Groupe 102" transform="translate(0)">
        <path id="Tracé_63" data-name="Tracé 63" class="cls-1" d="M125.264,126.72l-.944.273a4.954,4.954,0,0,0,.413,1.008l.862-.473A3.974,3.974,0,0,1,125.264,126.72Z" transform="translate(-124.32 -126.72)"/>
      </g>
    </g>
  </g>
</svg>
