<svg xmlns="http://www.w3.org/2000/svg" viewBox="0 0 26.5 47.062">
  <defs>
    <style>
      .cls-1 {
        fill: #fff;
      }
    </style>
  </defs>
  <g id="mobile-phone-with-wifi" transform="translate(-8.483 0)">
    <path id="Tracé_102" data-name="Tracé 102" class="cls-1" d="M33.779,8.338A7.142,7.142,0,0,0,26.645,1.2V0a8.346,8.346,0,0,1,8.338,8.337Zm-.878,0a6.262,6.262,0,0,0-6.257-6.256v1.2A5.058,5.058,0,0,1,31.7,8.338ZM26.645,4.23v1.2a2.9,2.9,0,0,1,2.9,2.9h1.2A4.113,4.113,0,0,0,26.645,4.23Zm1.632,5.724V39.427a2.307,2.307,0,0,1-2.3,2.3H17.36l-5.332,5.335V41.727H10.784a2.305,2.305,0,0,1-2.3-2.3V9.954a2.306,2.306,0,0,1,2.3-2.3H25.974A2.307,2.307,0,0,1,28.276,9.954ZM15.669,9.593a.279.279,0,0,0,.278.278h4.859a.278.278,0,1,0,0-.556H15.946A.279.279,0,0,0,15.669,9.593ZM26.674,11.3H10.081V37.471l3.491.021V43.3l5.807-5.807,7.295-.021V11.3Z" transform="translate(0 0)"/>
  </g>
</svg>
