<svg xmlns="http://www.w3.org/2000/svg" viewBox="0 0 32 32">
  <defs>
    <style>
      .cls-1 {
        fill: #fff;
      }
    </style>
  </defs>
  <g id="paper-plane" transform="translate(0 0)">
    <g id="Groupe_107" data-name="Groupe 107" transform="translate(3.375 0)">
      <g id="Groupe_106" data-name="Groupe 106" transform="translate(0 0)">
        <path id="Tracé_71" data-name="Tracé 71" class="cls-1" d="M82.309.082a.625.625,0,0,0-.628,0L70.228,6.859a.625.625,0,1,0,.636,1.076l8.218-4.859L63.775,18.958l-7.613-2.329L66.1,10.754a.625.625,0,0,0-.636-1.076l-11.155,6.6a.625.625,0,0,0,.135,1.136l9.092,2.782,4.011,7.3a.148.148,0,0,0,.013.02.623.623,0,0,0,.972.126l4.612-4.508,8.675,2.654a.625.625,0,0,0,.808-.6V.625A.625.625,0,0,0,82.309.082ZM67.579,20.577a.625.625,0,0,0-.111.356v3.823L64.728,19.77,76.849,7.195Zm1.139,5.13V21.777l3.062.937Zm12.657-1.364L69.093,20.585,81.375,2.856Z" transform="translate(-53.999 0)"/>
      </g>
    </g>
    <g id="Groupe_109" data-name="Groupe 109" transform="translate(3.375 21.54)">
      <g id="Groupe_108" data-name="Groupe 108">
        <path id="Tracé_72" data-name="Tracé 72" class="cls-1" d="M60.9,344.831a.625.625,0,0,0-.884,0l-5.835,5.834a.625.625,0,0,0,.884.884l5.835-5.835A.625.625,0,0,0,60.9,344.831Z" transform="translate(-53.999 -344.648)"/>
      </g>
    </g>
    <g id="Groupe_111" data-name="Groupe 111" transform="translate(0 29.312)">
      <g id="Groupe_110" data-name="Groupe 110" transform="translate(0)">
        <path id="Tracé_73" data-name="Tracé 73" class="cls-1" d="M2.5,469.184a.625.625,0,0,0-.884,0L.183,470.621a.625.625,0,0,0,.884.884L2.5,470.068A.625.625,0,0,0,2.5,469.184Z" transform="translate(0 -469.001)"/>
      </g>
    </g>
    <g id="Groupe_113" data-name="Groupe 113" transform="translate(7.849 30.713)">
      <g id="Groupe_112" data-name="Groupe 112">
        <path id="Tracé_74" data-name="Tracé 74" class="cls-1" d="M126.647,491.593a.624.624,0,1,0,.183.442A.629.629,0,0,0,126.647,491.593Z" transform="translate(-125.58 -491.41)"/>
      </g>
    </g>
    <g id="Groupe_115" data-name="Groupe 115" transform="translate(9.409 26.063)">
      <g id="Groupe_114" data-name="Groupe 114">
        <path id="Tracé_75" data-name="Tracé 75" class="cls-1" d="M154.692,417.189a.625.625,0,0,0-.884,0l-3.09,3.09a.625.625,0,1,0,.884.884l3.09-3.09A.625.625,0,0,0,154.692,417.189Z" transform="translate(-150.534 -417.006)"/>
      </g>
    </g>
    <g id="Groupe_117" data-name="Groupe 117" transform="translate(20.066 25.825)">
      <g id="Groupe_116" data-name="Groupe 116">
        <path id="Tracé_76" data-name="Tracé 76" class="cls-1" d="M325.219,413.394a.625.625,0,0,0-.884,0l-3.1,3.1a.625.625,0,0,0,.884.884l3.1-3.1A.625.625,0,0,0,325.219,413.394Z" transform="translate(-321.053 -413.211)"/>
      </g>
    </g>
    <g id="Groupe_119" data-name="Groupe 119" transform="translate(16.652 8.336)">
      <g id="Groupe_118" data-name="Groupe 118">
        <path id="Tracé_77" data-name="Tracé 77" class="cls-1" d="M267.5,133.563a.625.625,0,1,0,.183.443A.63.63,0,0,0,267.5,133.563Z" transform="translate(-266.43 -133.38)"/>
      </g>
    </g>
  </g>
</svg>
