<svg xmlns="http://www.w3.org/2000/svg" viewBox="0 0 20.607 20.685">
  <defs>
    <style>
      .cls-1 {
        fill: #fff;
      }
    </style>
  </defs>
  <g id="telephone" transform="translate(-0.912)">
    <path id="Tracé_14" data-name="Tracé 14" class="cls-1" d="M5.087,13.75a21.945,21.945,0,0,0,7.3,5.718,11.36,11.36,0,0,0,4.085,1.209c.1,0,.193.009.291.009a3.383,3.383,0,0,0,2.623-1.127.093.093,0,0,0,.017-.021,11.044,11.044,0,0,1,.827-.857c.2-.193.407-.394.6-.6A2.07,2.07,0,0,0,20.826,15L18.25,12.421a2.085,2.085,0,0,0-1.509-.694,2.155,2.155,0,0,0-1.526.69l-1.534,1.534c-.141-.081-.287-.154-.424-.223a5.3,5.3,0,0,1-.471-.257A16.24,16.24,0,0,1,8.906,9.94,9.352,9.352,0,0,1,7.595,7.848c.4-.364.78-.746,1.144-1.119.129-.133.261-.266.394-.4a2.2,2.2,0,0,0,.712-1.543,2.18,2.18,0,0,0-.712-1.543L7.856,1.967c-.15-.15-.291-.3-.437-.446C7.136,1.23,6.841.93,6.549.66A2.137,2.137,0,0,0,5.04,0,2.2,2.2,0,0,0,3.514.664l-1.6,1.6A3.294,3.294,0,0,0,.93,4.376a7.933,7.933,0,0,0,.6,3.429A19.948,19.948,0,0,0,5.087,13.75ZM1.976,4.466a2.267,2.267,0,0,1,.681-1.457L4.252,1.414A1.154,1.154,0,0,1,5.04,1.05a1.1,1.1,0,0,1,.772.373c.287.266.557.544.849.84.146.15.3.3.446.454L8.384,3.995a1.164,1.164,0,0,1,.4.8,1.164,1.164,0,0,1-.4.8c-.133.133-.266.27-.4.4-.4.4-.772.784-1.183,1.149l-.021.021a.838.838,0,0,0-.214.952c0,.013.009.021.013.034a10.087,10.087,0,0,0,1.5,2.447,17.14,17.14,0,0,0,4.132,3.763,6.136,6.136,0,0,0,.566.309,5.3,5.3,0,0,1,.471.257l.047.026a.9.9,0,0,0,.416.107.909.909,0,0,0,.639-.291l1.6-1.6a1.134,1.134,0,0,1,.784-.381,1.076,1.076,0,0,1,.759.381l2.585,2.58a1.034,1.034,0,0,1-.013,1.616c-.18.193-.369.377-.57.57a12.343,12.343,0,0,0-.9.93,2.353,2.353,0,0,1-1.839.78c-.073,0-.15,0-.223-.009a10.321,10.321,0,0,1-3.695-1.106A20.847,20.847,0,0,1,5.9,13.09,19.094,19.094,0,0,1,2.516,7.454,6.913,6.913,0,0,1,1.976,4.466Z" transform="translate(0)"/>
  </g>
</svg>
